<?xml version="1.0" encoding="UTF-8" standalone="no"?>
<!-- Created by diasvg.py -->
<svg width="66.400cm" height="46.850cm" viewBox="2.100 1.500 66.400 46.850"
 xmlns="http://www.w3.org/2000/svg"
 xmlns:xlink="http://www.w3.org/1999/xlink">
<!-- Layer: Background -->
<g id="Background">
<!-- UML - Node -->
<polygon fill="#FFFFFF" stroke="#000000" stroke-width="0.100"  points="2.150,2.050 2.650,1.550 22.600,1.550 22.600,18.850 22.100,19.350 2.150,19.350 2.150,2.050 "/>
<line x1="2.150" y1="2.050" x2="22.100" y2="2.050" stroke="#000000" stroke-width="0.100" />
<line x1="22.100" y1="2.050" x2="22.600" y2="1.550" stroke="#000000" stroke-width="0.100" />
<line x1="22.100" y1="2.050" x2="22.100" y2="19.350" stroke="#000000" stroke-width="0.100" />
<line x1="2.650" y1="3.297" x2="2.650" y2="3.297" stroke="#000000" stroke-width="0.050" />
<!-- UML - Node -->
<polygon fill="#FFFFFF" stroke="#000000" stroke-width="0.100"  points="5.400,28.755 5.900,28.255 22.625,28.255 22.625,46.805 22.125,47.305 5.400,47.305 5.400,28.755 "/>
<line x1="5.400" y1="28.755" x2="22.125" y2="28.755" stroke="#000000" stroke-width="0.100" />
<line x1="22.125" y1="28.755" x2="22.625" y2="28.255" stroke="#000000" stroke-width="0.100" />
<line x1="22.125" y1="28.755" x2="22.125" y2="47.305" stroke="#000000" stroke-width="0.100" />
<line x1="5.900" y1="30.003" x2="5.900" y2="30.003" stroke="#000000" stroke-width="0.050" />
<!-- UML - Node -->
<polygon fill="#FFFFFF" stroke="#000000" stroke-width="0.100"  points="51.525,2.755 52.025,2.255 68.450,2.255 68.450,20.805 67.950,21.305 51.525,21.305 51.525,2.755 "/>
<line x1="51.525" y1="2.755" x2="67.950" y2="2.755" stroke="#000000" stroke-width="0.100" />
<line x1="67.950" y1="2.755" x2="68.450" y2="2.255" stroke="#000000" stroke-width="0.100" />
<line x1="67.950" y1="2.755" x2="67.950" y2="21.305" stroke="#000000" stroke-width="0.100" />
<line x1="52.025" y1="4.003" x2="52.025" y2="4.003" stroke="#000000" stroke-width="0.050" />
<!-- UML - Component -->
<rect x="10.900" y="30.350" width="8" height="3.500" fill="#FFFFFF" stroke="#000000" stroke-width="0.100" />
<rect x="9.900" y="31.050" width="2.000" height="0.700" fill="#FFFFFF" stroke="#000000" stroke-width="0.100" />
<rect x="9.900" y="32.450" width="2.000" height="0.700" fill="#FFFFFF" stroke="#000000" stroke-width="0.100" />
<text x="12.300" y="31.645"  fill="#000000" text-anchor="start" font-size="0.80" font-family="sans" font-style="normal" font-weight="400">
Yagna DAEMON</text>
<!-- UML - Component -->
<rect x="11.125" y="12.855" width="8" height="3.500" fill="#FFFFFF" stroke="#000000" stroke-width="0.100" />
<rect x="10.125" y="13.555" width="2.000" height="0.700" fill="#FFFFFF" stroke="#000000" stroke-width="0.100" />
<rect x="10.125" y="14.955" width="2.000" height="0.700" fill="#FFFFFF" stroke="#000000" stroke-width="0.100" />
<text x="12.525" y="14.150"  fill="#000000" text-anchor="start" font-size="0.80" font-family="sans" font-style="normal" font-weight="400">
Yagna DAEMON</text>
<!-- UML - Component -->
<rect x="57.050" y="15.505" width="8" height="3.500" fill="#FFFFFF" stroke="#000000" stroke-width="0.100" />
<rect x="56.050" y="16.205" width="2.000" height="0.700" fill="#FFFFFF" stroke="#000000" stroke-width="0.100" />
<rect x="56.050" y="17.605" width="2.000" height="0.700" fill="#FFFFFF" stroke="#000000" stroke-width="0.100" />
<text x="58.450" y="16.800"  fill="#000000" text-anchor="start" font-size="0.80" font-family="sans" font-style="normal" font-weight="400">
Yagna DAEMON</text>
<!-- UML - Component -->
<rect x="11.150" y="35.850" width="8" height="3.500" fill="#FFFFFF" stroke="#000000" stroke-width="0.100" />
<rect x="10.150" y="36.550" width="2.000" height="0.700" fill="#FFFFFF" stroke="#000000" stroke-width="0.100" />
<rect x="10.150" y="37.950" width="2.000" height="0.700" fill="#FFFFFF" stroke="#000000" stroke-width="0.100" />
<text x="12.550" y="37.145"  fill="#000000" text-anchor="start" font-size="0.80" font-family="sans" font-style="normal" font-weight="400">
ya-provider</text>
<!-- UML - Component -->
<rect x="57.050" y="10.055" width="8" height="3.500" fill="#FFFFFF" stroke="#000000" stroke-width="0.100" />
<rect x="56.050" y="10.755" width="2.000" height="0.700" fill="#FFFFFF" stroke="#000000" stroke-width="0.100" />
<rect x="56.050" y="12.155" width="2.000" height="0.700" fill="#FFFFFF" stroke="#000000" stroke-width="0.100" />
<text x="58.450" y="11.350"  fill="#000000" text-anchor="start" font-size="0.80" font-family="sans" font-style="normal" font-weight="400">
ya-provider</text>
<!-- UML - Component -->
<rect x="4.550" y="5.650" width="12" height="3.500" fill="#AAAAFF" stroke="#000000" stroke-width="0.100" />
<rect x="3.550" y="6.350" width="2.000" height="0.700" fill="#AAAAFF" stroke="#000000" stroke-width="0.100" />
<rect x="3.550" y="7.750" width="2.000" height="0.700" fill="#AAAAFF" stroke="#000000" stroke-width="0.100" />
<text x="5.950" y="6.945"  fill="#000000" text-anchor="start" font-size="0.80" font-family="sans" font-style="normal" font-weight="400">
Requestor APPLICATION</text>
<!-- UML - Component -->
<rect x="57.050" y="3.900" width="8" height="3.500" fill="#FFFFFF" stroke="#000000" stroke-width="0.100" />
<rect x="56.050" y="4.600" width="2.000" height="0.700" fill="#FFFFFF" stroke="#000000" stroke-width="0.100" />
<rect x="56.050" y="6.000" width="2.000" height="0.700" fill="#FFFFFF" stroke="#000000" stroke-width="0.100" />
<text x="58.450" y="5.232"  fill="#000000" text-anchor="start" font-size="0.85" font-family="sans" font-style="normal" font-weight="400">
....</text>
<text x="58.450" y="6.082"  fill="#000000" text-anchor="start" font-size="0.85" font-family="sans" font-style="normal" font-weight="400">
runtime VM</text>
<!-- UML - Component -->
<rect x="10.625" y="41.105" width="8" height="3.500" fill="#FFFFFF" stroke="#000000" stroke-width="0.100" />
<rect x="9.625" y="41.805" width="2.000" height="0.700" fill="#FFFFFF" stroke="#000000" stroke-width="0.100" />
<rect x="9.625" y="43.205" width="2.000" height="0.700" fill="#FFFFFF" stroke="#000000" stroke-width="0.100" />
<text x="12.025" y="42.438"  fill="#000000" text-anchor="start" font-size="0.85" font-family="sans" font-style="normal" font-weight="400">
....</text>
<text x="12.025" y="43.287"  fill="#000000" text-anchor="start" font-size="0.85" font-family="sans" font-style="normal" font-weight="400">
runtime VM</text>
<!-- Network - Cloud -->
<path stroke="#000000" fill="#FFFFFF" stroke-width="0.100"  d="M 28.448,20.073 C 26.518,20.023 22.774,21.079 23.300,23.344 C 23.827,25.608 26.342,26.111 27.395,25.457 C 28.448,24.803 25.757,28.627 30.905,29.633 C 36.053,30.639 38.685,29.029 37.925,27.872 C 37.164,26.715 42.429,30.589 44.886,28.375 C 47.343,26.161 42.371,24.048 43.424,24.350 C 44.477,24.652 47.694,24.249 46.641,20.476 C 45.588,16.702 36.111,19.620 37.164,19.067 C 38.217,18.513 35.585,15.746 32.309,16.300 C 29.033,16.853 28.801,17.857 28.450,20.071 L 28.448,20.073 z"/>
<!-- Standard - Line -->
<line x1="55.578" y1="18.389" x2="47.151" y2="20.358" stroke="#000000" stroke-width="0.100" />
<polygon fill="#000000" stroke="#000000" stroke-width="0.100"  points="55.944,18.304 55.514,18.661 55.578,18.389 55.400,18.174 "/>
<polygon fill="#000000" stroke="#000000" stroke-width="0.100"  points="46.786,20.443 47.216,20.086 47.151,20.358 47.330,20.573 "/>
<!-- Standard - Line -->
<line x1="60.168" y1="15.022" x2="59.995" y2="13.555" stroke="#000000" stroke-width="0.100" />
<polygon fill="#000000" stroke="#000000" stroke-width="0.100"  points="60.212,15.394 59.905,14.927 60.168,15.022 60.402,14.868 "/>
<!-- Standard - Line -->
<line x1="59.826" y1="10.055" x2="59.873" y2="7.887" stroke="#000000" stroke-width="0.100" />
<polygon fill="#000000" stroke="#000000" stroke-width="0.100"  points="59.882,7.512 60.121,8.017 59.873,7.887 59.621,8.006 "/>
<!-- Standard - Line -->
<line x1="14.013" y1="35.854" x2="14.122" y2="34.331" stroke="#000000" stroke-width="0.100" />
<polygon fill="#000000" stroke="#000000" stroke-width="0.100"  points="14.149,33.957 14.363,34.474 14.122,34.331 13.864,34.438 "/>
<!-- Standard - Line -->
<line x1="13.758" y1="39.350" x2="13.663" y2="40.619" stroke="#000000" stroke-width="0.100" />
<polygon fill="#000000" stroke="#000000" stroke-width="0.100"  points="13.636,40.993 13.423,40.476 13.663,40.619 13.922,40.513 "/>
<!-- Standard - Line -->
<line x1="17.112" y1="30.891" x2="27.107" y2="26.619" stroke="#000000" stroke-width="0.100" />
<polygon fill="#000000" stroke="#000000" stroke-width="0.100"  points="16.767,31.038 17.129,30.612 17.112,30.891 17.325,31.072 "/>
<polygon fill="#000000" stroke="#000000" stroke-width="0.100"  points="27.452,26.472 27.090,26.898 27.107,26.619 26.894,26.439 "/>
<!-- Standard - Line -->
<line x1="17.339" y1="15.770" x2="27.295" y2="19.865" stroke="#000000" stroke-width="0.100" />
<polygon fill="#000000" stroke="#000000" stroke-width="0.100"  points="16.993,15.627 17.550,15.586 17.339,15.770 17.360,16.049 "/>
<polygon fill="#000000" stroke="#000000" stroke-width="0.100"  points="27.642,20.008 27.085,20.049 27.295,19.865 27.275,19.586 "/>
<!-- Standard - Line -->
<line x1="10.532" y1="9.149" x2="12.946" y2="12.462" stroke="#000000" stroke-width="0.100" />
<polygon fill="#000000" stroke="#000000" stroke-width="0.100"  points="13.167,12.765 12.670,12.508 12.946,12.462 13.075,12.214 "/>
<!-- Standard - Text -->
<text x="35.253" y="23.138"  fill="#000000" text-anchor="middle" font-size="2.12" font-family="serif" font-style="normal" font-weight="700">
Golem Net</text>
<!-- UML - Node -->
<polygon fill="#FFFFFF" stroke="#000000" stroke-width="0.100"  points="50.770,26.605 51.270,26.105 67.995,26.105 67.995,44.655 67.495,45.155 50.770,45.155 50.770,26.605 "/>
<line x1="50.770" y1="26.605" x2="67.495" y2="26.605" stroke="#000000" stroke-width="0.100" />
<line x1="67.495" y1="26.605" x2="67.995" y2="26.105" stroke="#000000" stroke-width="0.100" />
<line x1="67.495" y1="26.605" x2="67.495" y2="45.155" stroke="#000000" stroke-width="0.100" />
<line x1="51.270" y1="27.852" x2="51.270" y2="27.852" stroke="#000000" stroke-width="0.050" />
<!-- UML - Component -->
<rect x="56.270" y="28.200" width="8" height="3.500" fill="#FFFFFF" stroke="#000000" stroke-width="0.100" />
<rect x="55.270" y="28.900" width="2.000" height="0.700" fill="#FFFFFF" stroke="#000000" stroke-width="0.100" />
<rect x="55.270" y="30.300" width="2.000" height="0.700" fill="#FFFFFF" stroke="#000000" stroke-width="0.100" />
<text x="57.670" y="29.495"  fill="#000000" text-anchor="start" font-size="0.80" font-family="sans" font-style="normal" font-weight="400">
Yagna DAEMON</text>
<!-- UML - Component -->
<rect x="56.520" y="33.700" width="8" height="3.500" fill="#FFFFFF" stroke="#000000" stroke-width="0.100" />
<rect x="55.520" y="34.400" width="2.000" height="0.700" fill="#FFFFFF" stroke="#000000" stroke-width="0.100" />
<rect x="55.520" y="35.800" width="2.000" height="0.700" fill="#FFFFFF" stroke="#000000" stroke-width="0.100" />
<text x="57.920" y="34.995"  fill="#000000" text-anchor="start" font-size="0.80" font-family="sans" font-style="normal" font-weight="400">
ya-provider</text>
<!-- UML - Component -->
<rect x="56.270" y="38.955" width="8" height="3.500" fill="#FFFFFF" stroke="#000000" stroke-width="0.100" />
<rect x="55.520" y="39.655" width="2.000" height="0.700" fill="#FFFFFF" stroke="#000000" stroke-width="0.100" />
<rect x="55.520" y="41.055" width="2.000" height="0.700" fill="#FFFFFF" stroke="#000000" stroke-width="0.100" />
<text x="57.920" y="40.288"  fill="#000000" text-anchor="start" font-size="0.85" font-family="sans" font-style="normal" font-weight="400">
....</text>
<text x="57.920" y="41.137"  fill="#000000" text-anchor="start" font-size="0.85" font-family="sans" font-style="normal" font-weight="400">
runtime VM</text>
<!-- Standard - Line -->
<line x1="59.383" y1="33.704" x2="59.492" y2="32.181" stroke="#000000" stroke-width="0.100" />
<polygon fill="#000000" stroke="#000000" stroke-width="0.100"  points="59.519,31.807 59.733,32.324 59.492,32.181 59.234,32.288 "/>
<!-- Standard - Line -->
<line x1="59.128" y1="37.200" x2="59.033" y2="38.469" stroke="#000000" stroke-width="0.100" />
<polygon fill="#000000" stroke="#000000" stroke-width="0.100"  points="59.006,38.843 58.793,38.326 59.033,38.469 59.292,38.363 "/>
<!-- Standard - Line -->
<line x1="55.423" y1="28.769" x2="45.653" y2="26.042" stroke="#000000" stroke-width="0.100" />
<polygon fill="#000000" stroke="#000000" stroke-width="0.100"  points="55.784,28.870 55.236,28.977 55.423,28.769 55.370,28.495 "/>
<polygon fill="#000000" stroke="#000000" stroke-width="0.100"  points="45.292,25.941 45.841,25.835 45.653,26.042 45.706,26.316 "/>
<!-- Standard - Text -->
<text x="6.300" y="48.150"  fill="#000000" text-anchor="start" font-size="1.06" font-family="sans" font-style="normal" font-weight="400">
Provider Node</text>
<!-- Standard - Text -->
<text x="51.500" y="46.550"  fill="#000000" text-anchor="start" font-size="1.06" font-family="sans" font-style="normal" font-weight="400">
Provider Node</text>
<!-- Standard - Text -->
<text x="51.950" y="22.350"  fill="#000000" text-anchor="start" font-size="1.06" font-family="sans" font-style="normal" font-weight="400">
Provider Node</text>
</g>
</svg>
